<svg width="512" height="512" viewBox="0 0 512 512" fill="none" xmlns="http://www.w3.org/2000/svg">
<g clip-path="url(#clip0)">
<path d="M225.599 155.582C220.655 138.463 197.482 135.868 188.873 151.469L30.6993 438.12C19.3469 458.693 46.6242 478.598 62.7539 461.511L255.106 257.744L225.599 155.582Z" fill="#FFC700"/>
<path d="M284.613 359.906C289.557 377.024 312.73 379.619 321.339 364.019L481.161 74.3799C492.531 53.7755 465.168 33.8708 449.065 51.0322L255.106 257.744L284.613 359.906Z" fill="#FFC700"/>
<path d="M255.106 257.744L225.599 155.582C220.655 138.463 197.482 135.868 188.873 151.469L30.6993 438.12C19.3469 458.693 46.6242 478.598 62.7539 461.511L255.106 257.744ZM255.106 257.744L284.613 359.906C289.557 377.024 312.73 379.619 321.339 364.019L481.161 74.3799C492.531 53.7755 465.168 33.8708 449.065 51.0322L255.106 257.744Z" stroke="#FF9820" stroke-width="40"/>
</g>
<defs>
<clipPath id="clip0">
<rect width="512" height="512" fill="white"/>
</clipPath>
</defs>
</svg>
