<?xml version="1.0" ?><svg height="32px" id="Layer_1" style="enable-background:new 0 0 32 32;" version="1.1" viewBox="0 0 32 32" width="32px" xml:space="preserve" xmlns="http://www.w3.org/2000/svg" xmlns:xlink="http://www.w3.org/1999/xlink"><path fill="white" d="M30.25,13c-1.22-0.274-1.581-0.396-2.25-2c-0.625-1.5-0.471-1.898,0.197-2.955c0.766-1.208,0.32-2.155-0.177-2.652  l-1.414-1.414c-0.497-0.498-1.443-0.942-2.651-0.177C22.898,4.471,22.547,4.625,21,4c-1.499-0.605-1.726-1.03-2-2.25  C18.686,0.354,17.703,0,17,0h-2c-0.703,0-1.687,0.354-2,1.75C12.726,2.97,12.499,3.395,11,4C9.453,4.625,9.102,4.471,8.045,3.803  C6.837,3.038,5.891,3.482,5.394,3.979L3.979,5.394C3.482,5.891,3.037,6.837,3.803,8.045C4.471,9.102,4.625,9.5,4,11  c-0.669,1.604-1.03,1.726-2.25,2C0.354,13.313,0,14.297,0,15v2c0,0.703,0.354,1.687,1.75,2c1.22,0.274,1.581,0.396,2.25,2  c0.625,1.5,0.471,1.898-0.197,2.955c-0.766,1.208-0.32,2.155,0.177,2.652l1.414,1.414c0.497,0.498,1.443,0.942,2.651,0.177  C9.102,27.529,9.453,27.375,11,28c1.499,0.606,1.726,1.03,2,2.25c0.313,1.396,1.297,1.75,2,1.75h2c0.703,0,1.686-0.354,2-1.75  c0.274-1.22,0.501-1.644,2-2.25c1.547-0.625,1.898-0.471,2.955,0.197c1.208,0.765,2.154,0.321,2.651-0.177l1.414-1.414  c0.497-0.497,0.942-1.443,0.177-2.652C27.529,22.898,27.375,22.5,28,21c0.669-1.604,1.03-1.726,2.25-2  c1.396-0.313,1.75-1.297,1.75-2v-2C32,14.297,31.646,13.313,30.25,13z M16,21c-2.761,0-5-2.239-5-5s2.239-5,5-5s5,2.239,5,5  S18.761,21,16,21z"/></svg>